<?xml version="1.0" encoding="UTF-8"?><svg id="Layer_1" xmlns="http://www.w3.org/2000/svg" xmlns:xlink="http://www.w3.org/1999/xlink" viewBox="0 0 1080 1021.33"><a xlink:href="https://fdotwww.blob.core.windows.net/sitefinity/docs/default-source/planning/fto/trends---conditions-folder/se-transportation-trends-and-conditions.pdf"><path id="Southeast_Region" d="M1003.9,678.6l-4.09.1,4.09-.1-4.93-12.8-4.97-10.56-1.12.38-4.33-7.33-1.75-3.2-1.27-2.35-5.81.17h0s5.81-.17,5.81-.17c-4.16-7.67-8.07-15.51-10.72-23.8-.57-1.39-1-1.24-1.12-2.63-.09-.65-1.51-6.13-2.5-9.91l1.85-.05h.17l.68-.02,1-.03c-.39-1.44-.79-2.91-1.17-4.22-.44-1.54-1.53-2.71-2.15-4.21-.56-1.6-.76-3.3-1.36-4.9-1.94-6.19-3.63-11.03-6.7-16.43-1.3-2.38-2.15-4.6-3.47-6.67-.24-.36-.51-.6-.76-.77l-.59.06-.32.03-3.21.29-.42.05-1.82,3.94-39.95,1.21h-1.51l1.51,22.4,10.44-.3.76,10.59h10.6s0,0,0,0l1.36,43.89h0s.46,10.59.46,10.59l-22.55,21.04h0s.76,39.2.76,39.2l1.36,39.2h0s.45,2.27.45,2.27v6.81l1.06,18.16.76,17.1,4.51-.16-4.51.16.3,11.95v9.84l.13,4.7-.13-4.7-50.55,1.51-2.37.05-3.66.09h-.66l-.15.02s.05.06.09.09v.02c.09.08.18.15.24.23v.02c.02.14.03.27.12.35.14.2.35.23.35.53v.63s.3-.39.62-.47c.17-.03.32.11.4.09.11-.02.03-.29.12-.44.21-.23.3.09.23.32-.06.06-.09.15-.09.24-.02.08-.03.15-.06.21-.06.15-.06.2.11.2.09,0,.44.09.39.17-.09.18-.36.18.03.17.33-.02.43-.2.53-.33.06-.23,0-.33.15-.21v.17h.45v-.3h.3v.61h.46v-.3h.3c-.39,1.51-2.36,1.18-3.13,2.27-.03.14.08.27.26.38v.23h-.46v.46h.46v.3h.3v-.3h.45v-.4c.27.08.5.12.59.12.32-.09.21-.65.38-.86.76.38,1.18,1.01,1.38,1.74h-.23l-.3.45h.3v.3h.3v-.43c.12.64.06,1.33-.09,1.94.06.66.82.82.29,1.38-.38.48-.26.89.36,1.09,1.61.24,2.27,1.53,3.71,2.25.59.11,1.07-.76,1.63-.74v.41h-.45v.3h1.21v-.2c.63.91-.18,2.66.38,3.19.14.14.24.27.33.41l-.11-.08h-.3v.3h-.76v.3h1.06v-.3h.26c.38.6.58,1.3.7,2,.17,1.11,1.5,1.38,2.04,2.35.97,2.27,1.59,4.68,3.12,6.77.12.24.27.48.24.74-.05.33-.65.3-.73.55-.06.73.8,1.76,1.53,1.98.24.05.55.05.86.06,1.12.05,2.38.12,1.8,1.71-1.35,1.72-2.18,3.86-.54,5.81,1.15,1.13,5.13,5.1,6.23,11.14.58,3.19,2.41,2.36,2.73,3.52-.51.65-2.47,6.58-2.57,7.31-.2,1.83-1.69,2.66-1.32,4.6-.29,1.59-1.5,4.01-.98,6.16,1.21,4.28,5.28,7.29,8.82,9.78.68.5,1.2,1.29.02,1.27-1.88-.5-3.51-2.62-5.04-3.78-.39-.11-.17.77.12,1.23,1.15,1.48,4.01,2.83,5.25,4.8,2.13,1.51,4.96-1.26,7.54-.53,3.18.03,5.99-.45,8.82-1.12v.11h.45l-.24-.17c1.36-.32,2.74-.7,4.15-1.06,1.06-.63,1.18-2.19,2.15-2.88,1.12-.68,2.24-1.35,3.62-1.44.29-.05.56-.03.83.02h0s5.08,4.16,5.08,4.16l2.57-1.51.3,1.82,1.06.3,1.06-2.42,4.09,2.42,1.06-2.42.08.03.23.09.45.18.09.3.21.76,4.09,1.51,6.81-6.51,9.08-3.03-.55-.92-.51-.89.76-.3.56.33,3.83,2.24.46-1.36.15-.45v-.45l.12-.29.33-.77,1.06-.3.17-.59.14-.47h.45l.61-.12,2.88-.55.23-.05h0s-.23.05-.23.05c.16.15.22.28.23.41v.08c-.08.59-1.39.95.21,1.73.45.38.77.88,1.09,1.41v.02c0,.17.24.43.38.59,0,.02.02.02.02.03.45.68.98,1.33,1.83,1.69,2.83,1.8,2.6,2.59,1.14,5.07-.27.55-.73,1.09-1.33,1.21-2.29-.05-.46,1.3-1.57,2.47-.59.48-1.83-.42-1.86-.24-.15.21.89,1.51.64,2.18-.35,1.21-2.04,1.85-2.69,2.45-1.14,2.81-3.65,4.96-5.21,7.04-.62.5-.62,1.5-1.32,2.03-.57.42-1.89-.03-2.34.7-1.3,2.73-1.53,5.6-4.67,6.07-.83-.97-2.14-1.83-2.14-1.83-.75,4.57-15.91,12.79-18.8,15.06-2.88,2.27-25.62,13.36-30.36,15.28-4.74,1.92-8.73.97-7.05,2.83.09.1.18.19.28.27-4.36,1.07-11.57,3.29-12.95,4.11-2.2,1.31-.91-2.24.5-4.47,1.41-2.23,3.42-2.01,4.49-5.22,1.07-3.21,5.52-5.11,3.33-5.14-2.2-.04-6.41-1.39-10.37.53-3.96,1.92-3.21.08-5.67.23-2.47.14-4.69-1.51-8.02-4.39-3.33-2.88-4.99,2.88-6.05,3.94-1.06,1.06-1.82,4.09-5.9,4.09s-1.82-1.06-3.4,1.36c-1.59,2.42-5.67,3.33-10.07,5.45-4.39,2.12-9.08,5.14-11.2,8.47-2.12,3.33-3.31,5.05-5.14,7.87-1.83,2.81-5.09-1.69-9.38,1.52-4.29,3.21-13.01,3.33-13.01,3.93s4.99,1.21,9.69.46c4.69-.76,13.1-2.72,17.8-3.29,4.69-.56,6.93-.65,8.38-.35,1.45.3,16.66-7.61,19.67-8.02,3.01-.41,3.94-3.93,5.75-4.39,1.82-.45,5.62,3.57,6.48,4.39.86.82,4.87-2.12,7.93-3.31,2.74-1.07,12.77-4.3,18.35-6.99,1.72.81,3.77.79,3.77.79,0,0,3.8-4.15,5.57-4.15s6.67-4.82,11.35-5.43c4.68-.61,7.63-5.21,8.54-5.27.91-.06,10.7-2.56,13.32-4.26,2.61-1.7,15-11.39,15-12.72,0-.07-.01-.15-.03-.22,1.71-.39,3.97-3.86,4.64-4.98,1.26-1.21,2.45-1.82,3.87-3.48,1.35-2.68,2.94-5.75,5.49-7.6.33-.26-.26.66.29.38.39-.17.62-.45,1-.89,1.03-1.41,1.57-2.77,2.84-3.65.39-.3.6-.57.27.06-1.17,3.4,4.81-3.56,5.05-5.19.05-.11.09-.21.11-.29.29-.7-.7-.33-.51-1.12.03-.09.06-.2.12-.3.09-.23.21-.48.35-.77.08-.15.17-.32.26-.48,2.18-3.33,4.04-7.05,5.99-10.62.82-1.76,2.88-3.95,2.68-6.01-.32-.59-.47-.44.15-.91.23-.17.41-.4.51-.65.18-.54.15-.47.79-.73.08-.04.16-.1.24-.17l.9.5c2.52-3.46,2.72-6.89,2.72-6.89,0,0,2.55-9.97,3.75-11.73,1.2-1.76.63-6.66.63-6.66l-4.39,10.63s-.6,6.32-2.12,6.92c-1.51.6-2.99,2.85-2.99,2.85l-.65,3.21,1.08.6c-1.93.86-4.38,5.08-5.9,5.46-.91.33-1.95-.02-2.89.3-.8.26-1.35.5-.48.83,4.03.77,2.69,6.81.7,9.23-2.06-.3-3.16,1.8-5.25,1.5-2.07-.35-2.34-2.54-3.19-3.81-.38-.61-.03-1.15-.05-1.68h-.3s1.07,0,1.07,0l1.36-2.27h1.51l1.52-4.69v-2.12h.3v-.24c.2-.26.39-.55.53-.86.5-.91,1.48-1.08,2.35-1.41.06-.02.12-.03.17-.06h.29v-.14c.11-.05.21-.11.3-.17.2-.14.38-.3.53-.52.94-1.62,2.36-3.54,3.12-5.26.09-.32.33-1.11-.12-.79-2.5-.5-1.98-4.46-1.63-6.28-2.35-4.01-2.81-8.7-.09-12.84,1.16-.89.73-1.41,1.39-2.77.63-2.8-1.23-6.73,1.56-8.93.09-.11.17-.2.23-.29.39-.48.11-.83.47-.42.73.53,1.23-.33,1.53-1.14.38-1.6,1.14-3.27,1.24-4.74-.18-.71-.08-.77.67-1.22.74-.49.29-1.45.54-2.06.05-.94.65-1.74,1.47-2.51.09-.09.2-.18.3-.27v.24l.46-.45h-.2c.3-.26.63-.51.95-.77v.17l.23-.33c1.33-1.03,1.38-.82,1.88-2.1,1.75,1.36,2.37-.19,4.41,1.34.05.04,3.01-2.63,3.03-2.69.85-3.21-.95-4.54,1.36-6.81v-3.03l-.15-4.69s-.57-4.34-.63-5.05c-.26-.8-.7-5.09-.7-5.09.23-.48.32-1.03.29-1.53.03-.12.02-.29-.03-.47l-3.86.19,3.86-.19.46-.02.12-.02.35-.02c.23-4.74.76-9.4.45-13.33-.23,2.3-.23,5.52-.56,7.39,0-3.42.33-6.72-.71-9.7-.08-.85.67-1.45.95-2.26.14-.65-.27-1.24-.09-1.59.29-1.08.48-2.23.63-3.4-.2,1.98-.38,4.05-.03,5.63-.03.29-.26.68-.35.85-.14.18-.08.09-.2-.06-.2-.24-.51-.03-.63.23-.3.46.33,1.2.82.91.21-.11.39-.36.47-.71.3-3,.76-6.22.97-9.26.32-3.39.79-7.13,1.27-10.37.02-.08.02-.15.03-.23.02-.2-.05-.33-.12-.39.5-1.72.17-3.84.24-5.71-.08-.48-.39-.86-.48-1.36v-.03c.05-.15.08-.33.11-.51.05-.09.11-.18.15-.27h-.11c.29-1.63.42-3.54.8-5.19.21-.36-.17,2.85.21,3.03.94-7.49.92-16.59,2.07-24.18-.03-.38-.09-.36-.24-.11-.38.62-.62,2.81-.83,4.25-.62,3.97-.42,9.31-1.04,13.53.52-12.18,2.44-24.18,1.24-36.32-.45-6.25-.29-12.17-1.42-18.45-.14-.94-.11-1.8-.03-2.23.09-.33.12-.3.18-.08.06.6.59,2.12.94,2.57.23.3.32.2.5.02.2-.09.02.92-.12,1.39-.08.48.32.83.39,1.32.2,1.01.44,5.84.85,2.27-1.3-7.61-3.31-15.33-5.9-22.88Z" fill="#1f4283"/></a><a xlink:href="https://fdotwww.blob.core.windows.net/sitefinity/docs/default-source/planning/fto/trends---conditions-folder/sw-transportation-trends-and-conditions.pdf"><path id="Southwest_Region" d="M856.59,765.08l-.61-13.77-.91-15.57-.14-2.44-.02-.15h0v-6.81l-.45-2.27-1.36-39.2-.76-39.19h0s0,0,0,0l22.55-21.04-.45-10.59-1.36-43.89h-10.59l-.76-10.59-10.44.3-12.71.45-17.1.3h0s-37.38.45-37.38.45l-9.53.3h0s-28.6.3-28.6.3l-25.88.45h0s-55.54,1.06-55.54,1.06l-.03.02c-.8,1.2-1.12,2.6-1.19,3.83.06.59.3-.21.54-.18.57.09,1.82,2.32.05,1.75-.38-.14-1-.44-1.35-.21-.3.7-.42,1.57-.53,2.27-.17.02-.41-.12-.58-.18-.68-.47-1.66.35-2.78.23-.42.09-.63.17-.12.48.09.06.17.11.24.15.47.29.8.41,1.32.58.97.2.12.98-.41,1.38-.27.26-.53.88-.89.71-.33-.14-.51-.66-.45-1.11,0-.24-.17-.17-.32-.08-4.27,4.43,3.07.74,4.46-.26,2.24-1.47.67,1.01.09,1.39.15.91-2.56,2.85-3.01,3.95-.23.3-.5.23-.74.03-.48-.32-.09-.91-.33-1-.66.67-1.56-.08-2.44.02-1.21-.06-1.04.62-2.3,1.42-.73.45-1.74.7-2.47,1.06-.53.41.56,1.33.59,1.92,0,.24-.71-.6-1.25-.44-.23.05-.43.27-.52.51-.08.17-.06.36-.05.55.17.82.08.88.58,1.09.26.09.59.06.85-.05.38-.11.38-.47.74-.57.66.12,1.14-1.39,1.91-1.04.54.62,1.27,3.77-.36,4.06-1.33.17-2.35-1.2-3.54-.79-.26.35.02.62.41,1.03.7.74,1.83,1,2.6,1.65.44.35-.66.35-.38.7.03.05.09.09.18.14,3.01,1.17,6.66,2.78,9.19,4.09.65,1.01.91,2.07,1.18,3.16h0c.21.86.45,1.73.91,2.57.74,1.14.94,2.74,1.12,3.97,1.76,1.94.8,5.18,1.01,7.66.05.17.11.33.2.5.92,2.13,3.35,3.36,4.12,5.54.88,2.44.92,4.74,1.91,6.95.06.09.12.2.18.3.91,1.47,2.09,3.86,2.21,5.25.26.8.92,1,1.65.7.09-.02.11.05.09.14-.11.5.08,1.17.45,1.47.41.29-.02.41-.32.26-.39-.12-.89-.38-1.29-.36,1.26,6.98,6.51,13.79,10.02,20.19l2.12-.03h0c.06.09.12.17.18.26.51.97,1.51,2.23,2.18,3.01l-.2.2h.3v-.09c.05.06.11.12.15.18.11,1.39,1.36,2.68,1.92,4.11.3.8.3,1.39.71,2.21,0,.02.02.03.03.05.06.11.14.23.17.32.02.05.05.08.06.12,0,.09-.43-.23-.33-.06.24.52,1.09,1.54,1.32,1.71.12.09.27.14.36.17v.06h.45v.3h.54c.67.48,1.33.98,1.82,1.54.92.59,1.68,1.53,2.75,1.75.12.05.24.11.33.18.44.29.68.71,1,.68.36-.08,1.19-.62,1.33-.5.02.12-.29.29-.23.38.36.08.55.63,1.71.79-.18.18-.52.27-.61.52-.06.18.21.66.3.71.15.05.2-.06.41,0,.18.15.14-.23-.05-.44-.08-.08-.09-.15-.08-.23.03-.09.27-.32.33-.14-.05.23,0,.41.26.45.06.06.18,0,.3.09h.02c.18.08.24.27.3.24.02-.05-.06-.32-.02-.38.08-.06.17.09.24.02.06-.09.11-.32.15-.38.05-.03.06-.05.06-.06.18.03.36.03.54-.05.03-.02.05-.03.08-.05h.3c.08.05.12.11.14.14v-.47c.98-.83,2.18-2.47,2.51-3.3.03-.02.05.05.08.2.06.71.65,1.32.3,2.01-.21.23-.29.21-.29.63.02.12.08.3.03.41-.05.08-.47-.59-.71-.2-.44.73-.08,2.42.39,2.59.62.85,1.98.02,1.3-1.08-.18-1,.32-.09.44.15.06.05.09.05.09-.09-.54-3.62-1.16-9.09-2.83-11.97-.24-1.75-1.54-3.97-.66-6.07.14-.38.29-.63.47-.77.44.63.94,1.51,1.6,1.85.23.27.53.67.79.64.33-.02.83.17,1.18.12.35-.06.66-.58.76-.79.03-.14-.51-.2-.71-.15-.15.02-.21.06-.17-.11.15-.73-.29-.14-.61.05-.24.15-.57-.15-.66-.24t-.02-.02c.06,0,.3.03.39-.06.14-.23-.18-.68-.32-.58-.09-.2-.14-.39-.5-.44-.18-.02-.21.3-.21.29.05.02-.3-.3-.51-.23-.17.03-.33.2-.26.09.11-.18-.14-.47-.38-.6.24-.05.51.03.8.14h-.18v.3l.35-.23c.3.12.64.29.97.41.56.15,2.3,1.24,2.51-.05.06-.09.09-.15.26-.09,1.36.82,3.33,2,3.74,3.69.33,1.68.29,2.65,2.16,3.33.62.33,1.44.58,2,.95h-.03v.76h.48c.03.41.06.65.17,1.06h-.2l-.45-.3v.76h.45v.3h-.45v.76l.45.3h.3v-1.36s.02.06.03.09c0,.42.3.97.47,1.3.03.18-.03.18-.21.32-.71.83-.27,2.24.02,3.28.05.17.09.32.11.45.05.18.08.35.08.49-.05.36.14.86.27,1.03-.03.14-.29.35-.06.47.33.21,0,.09-.29.59-.2.2-.2.52-.42.67-.23.05-.42.05-.54.14l-.2-.2h-.3v.76l.3.3h.14c0,.38-.03.82-.08,1.27h0s0,.06-.02.09c-.24,2.06-.98,4.63-1.62,6.01-.27.39-.27.89-.15,1.41h-.7v1.51h.3v.3h.3v-1.06h.3c.18.52.36.98.38,1.32.09.35-.71.23-.7.38.02.23.12.26-.12.44-.14.18-.02.45.17.74h-.03v.14c0-.09-.06-.18-.14-.2h-.03s-.03,0-.05.02c-.15,0-.39-.05-.39.15v-.11h-.46v.3h.46v1.51h-.46v1.06h.76v.76h.3v.3l2.04,5.72-2.72-.42c-.06-.57-2.2-1.21-2.2-1.21-.45-2.27-1.24-9.69-3.18-10.14-1.94-.45-6.52-1.12-5.3,1.06,1.23,2.18,1.15,2.56,2.42,3.93,1.27,1.38,2.42,4.39,2.42,5.15s1.09,1.82,1.3,3.63c.21,1.82,1.07,2.8,1.58,5.75.5,2.95-.79,2.57-.3,4.39.49,1.82,1.21,2.5,3.33,2.12,2.12-.38,3.18.61,3.18,0s-1.42-3.63-1.62-4.69c-.11-.54-.17-1.59-.33-2.71,1.22.27-2.06-5.19-1.83-5.08.33.14,2.35.57,2.72.53.35.06,1.92,2.29,2.12,2.57.15.6-.68,1.56-.46,1.82l1,2.1,1.42.68h.02c.8.2,2.13,1.2,2.56,1.85.14.24.54.11.6.06-.33.64-.06,1.03.32,1.39-2.77,1.15-6.55,5.66-8.34,5.95-2.21.35-3.63-1.44-6.51-2.2-2.88-.76-5.6-3.06-5.49-5.43.11-2.37-2.21-8.14-2.36-8.79-.15-.65-2.51-6.81-2.51-6.81,0,0,.98-4.39-.74-4.3-1.5.08-2.3-2.89-2.97-3.57-.11-.11-.21-.17-.3-.15-.55.08-.41,1.33-.15,2.88.09.58.21,1.2.3,1.82.33,2.21,3.42,5.95,3.89,7.91.02.05.02.09.03.14.2,1.06.8,2.32,1.38,3.6.06.09.11.2.15.3v.02c.05.09.09.2.12.29.02.02.02.05.03.06.02.03.03.06.05.09.03.09.06.18.11.27,0,.02.02.03.02.03.26.66.48,1.33.59,1.97,0,.03.02.06.02.09,0,.02,0,.05.02.08.36,2.29,1.01,8.43,2.69,9.52.55.35,1.59,1.09,2.81,1.97.38.27.76.54,1.17.83.03.03.08.05.11.08,1.41,1,2.89,2.04,4.07,2.84.73.49,1.35.86,1.75,1.09.4.21,1.2-.02,2.26-.53,1.75-.83,4.16-2.41,6.45-3.95v-.06h-.3l-.3.15h-.76l-.61.15-.45-.3h-.15l.45-1.06h.15v-.3h.15v-.3h.15v-.15l.15-.3-.15-.15h.15v-.3l.3-.3v-.15h.15v-.15h.15l.15-.15h.15v-.15h.15l.61-.3v.15l.6-.15h.46l.3-.15h.3v.15h.15l.45.15.46.15h.76l.91.46.15-.15v.15l.15.15.61.3.7.57c.76.23,1.15-.08,2.12.36.02.02.03.02.06.03v.09l.3.3v-.24c.24.11.51.21.66.33.27.2-.36.3.05,1.06.14.44,1.06,1.1,1.35,1.06.23,0,.03-.33-.03-.42-.41-.45-.57-.76-.21-.98v.26h.45l-.42-.29s.02-.02.03-.02c.11-.23.41-.33.7-.29.08,0,.15.03.23.06l.23.23v-.08c.14.12.24.32.26.58.18.42-.03,1.04.35,1.33.43.39,1.73-.26,1.92-.43.09.09.05.41.26.35.2-.08.38-.26.57-.38.44-.35.91-.02.73-.35-.64-.57.08-1.45.77-.95.43.33,1.01,1.39,1.06,2.1-.17,1.17.47,1.41.89,2.51.03.05.05.11.06.15.17.73.14,1.65.74,2.13.08.14,0,.97.15,1.64-.02.95,1.44,4.28-.03,5.11-1.45.11-.23-.65-1.24-1.41-.4-.27-.55-.15-.53.09.02.17.11.41.23.62.47.82.82,1.72,1.15,2.65h0c.47,1.3.88,2.63,1.44,3.77.05.08.08.15.12.23.02.03.02.05.03.06.12.23.24.44.38.65.09-.08.14-.26.23-.36.06-.23.61.2.35.65-.36.76-.4,1.59-.29,2.42.06.41.14.82.23,1.23.12.47.23.92.32,1.39l.05.27c.05.2.08.39.11.59.02.03.02.06.02.09.39,2.24.54,4.46.89,6.63.12.82.29,1.63.49,2.42,0,.08.08.63.17,1.45.08.53.15,1.18.26,1.88.05.38.09.76.15,1.15v.06s.02.11.03.15c.03.3.08.62.12.91.12.86.26,1.66.38,2.27,0,.11.03.2.05.29.18.86.32,1.15.36.29.62-1.01.36-.24.71.27.12.17.09-.3.05-.79,0-.33-.36-.88-.08-.71.06.08.17.23.23.3.32.4-.46-1-.35-1.29-.03-.97.62-3.24.95-3.93-.48,1.66-.24,3.98.12,5.64.12.98.12,2.54-.05,2.88-.09.15-.18.14-.26-.08-.11-.27-.26-.7-.32-.88-.52-.44-.85.35-.77,1,0,.17.03.33.11.45.76,2.27,2.56,5.69,3.71,8.26.05.09.08.17.11.26.06.11.11.23.15.33.02.05.03.08.05.09.05.08.06.02.02-.18-.09-.39-.39-1.09-.51-1.56-.17-.42-.33-.86-.46-1.29-.11-.33-.12-.56-.09-.76.21.6.47,1.11.98,1.6.08.12.11.3.23.45,0,.02.02.02.03.03.06.15.38.5.65.56.35.06.54.35.77.36.18-.05.73-.32.73-.38-.11-.17-.26-.56-.38-.49v-.32h.46v-.42c.29.48.38,1.11.12,1.98.15.29.79,1.74,1.69,2.17.15.11.36.17.35.36.12.5-1.32,1.33-1.14,1.71.24.15.5-.05.79-.27v.38h.6v-.45h-.51c.35-.29.73-.57,1.15-.42.97.11.3,1.32.76,1.72.24.14,1.03-.97,1.24-.74.65,1.42,2.2.62,3.27.12v.08h.3v-.21s.08-.03.12-.05c1.33.06.23,1.48-.3,1.88-.68.62-1.2-.67-2.38-.36-.27.08-.82.24-.71.56.17.21.74-.09.98.02.44.21.88.47,1.32.74.95.62,1.92,1.35,2.8,1.95.02.02.03.02.05.03.44.26,1.21-.15,1.39.53.3.26-.3,2.26.38,1.74.24-.15.54-.85.89-.59.58.42-1.35,2.36-.42,2.71.29.02.5-.03.66-.12.03,0,.05-.02.06-.03.5-.29.56-.97.61-1.66.03-.43.05-.88.18-1.23.06-.2.17-.36.3-.49.68-.47,1.56.2,1.89.82.27.77.41-.29.79.09.33.26,1.14.14,1.29.67.14.36.27.95.02,1.27-.27.18-.65-.11-.88-.29-.7-.66-.97-.74-1.98-.45-.79.05-.82,1.3-.48,1.54.14,0,.3,0,.5.02,0,0-.02,0-.02.02-.05.5.14.36.05.77.03.12.51-.21.56-.2.08.05.15.41.32.2.12-.14,0-.27-.09-.3.06-.03.14-.15.14-.29.21.08.39.18.53.35.14.09.3-.06.41-.14.5-.41,1.53.91,2.48.59.11-.02.29-.12.51-.27-.05.12-.08.23-.06.3.06.18.23.21.38.15.17-.02.23.12.33.03.11-.08.3,0,.33.05.06.06-.39.38-.38.6.02.14.2.32.36.44.15.11.3.18.33.17.03,0,.05-.05.03-.12,0-.24-.12-.74.17-.67.2.02.57.23.8.64.12.14.18.23.35.2.23-.05.47-.14.64.03.05.09.06.18.17,0,.02-.02.03-.05.03-.06.08.5.26,1.03.5,1.44.3.51-.08,2.07.4,1.06.53-.89.09-1.92.14-2.83.11.23.26.65.47.86.32.53,1.38.42,1.06-.05-.12-.29-.41-.59-.53-.85.27-.64,1.47-.64,2.15-.86,1.36-.36,3.1.73,3.78,1.51.36.45-.53,1.3-.32,1.59.27-.14.59-.38.91-.48.54-.29,1.35.38,2.13.24,3.72-.3,6.95,3.04,8.69,5.93.74-.73,1.48.14,1.92,1.15.03.06.06.14.09.2l2.38-.05,27.74-.83,9.26-.27,3.44-.11,1.82-.06,8.29-.24v-9.84l-.3-11.96-.15-3.33Z" fill="#1f4283"/></a><a xlink:href="https://fdotwww.blob.core.windows.net/sitefinity/docs/default-source/planning/fto/trends---conditions-folder/c-fl-transportation-trends-and-conditions.pdf"><path id="Central_Region" d="M906.77,488.39l-3.06-6.19-.03-.08-.86-1.72-4.27-8.63-6.93-17.34-3.66-17.8v-.02l-.12-.59-.03-.15-.86-4.19.86-4.42.15-.77v-.02l.92-4.71.53-2.74,1.41-1.3.02-.02,1.82-1.66.02-.02,3.04-2.78-.79-2.19-.14-.36-.17-.45-.12-.35-2.88-7.92-.18-.42v-.03l-2.24-5.27-.33-.79-3.84-4.52-2.24-2.62-4.36-1.18-3.38-3.03-6.01-7.34-2.68-3.92h0s-.06-.11-.09-.15c-.29-.44-.56-.86-.82-1.3-1.39-2.21-2.68-4.49-3.89-6.81-.61-1.15-1.18-2.3-1.73-3.45l.12.12v-.3h.46v-1.52h-.46v1.06h-.3v-.6h-.41s-.05-.09-.06-.14c-.21-.46-.42-.91-.64-1.38h.05v-.3h-.18c-.27-.6-.53-1.21-.79-1.82-.36-.85-.71-1.68-1.06-2.53-.23-.33-.44-.68-.66-1.03-.02-.02-.02-.03-.03-.05-.56-.89-1.13-1.88-1.71-2.88-.06-.12-.12-.23-.2-.35l.24.17v-1.06h-.45v-.3h-.3v.26c-.23-.43-.46-.83-.67-1.26l.36.24v-1.06h-.46v.3h-.18c-.05-.08-.09-.15-.12-.24-.27-.5-.51-1-.76-1.48v-.09h-.05c-.06-.11-.11-.21-.15-.3-.02-.03-.03-.06-.05-.09-.23-.36-.36-.73-.41-1.07l.05-.05c.09-.02.2-.06.3-.14v.29l.3-.45h-.06c.21-.15.43-.33.59-.47.24-.35-.06-.47-.41-.26-.12.06-.24.17-.32.26.36-.39.46-.68.49-.74.26-.03.3-.35,0-.3-.06.02-.14.08-.21.15.27-.35.57-.67.09-1.08-.26-.26-.46-.48-.38-.48.08.03.73.36.52-.02-.02-.23-.74-.53-1.36-.7h.3v-.3h-.3l-.46-.45h-.3v.27c0-.12-.03-.38-.05-.52-.41-.48-.14-1.03-.32-1.56-.23-.06-.47-.15-.65-.29,0,.02-.02.03-.03.05-.06.15-.24.18-.39.24v.02h-.08v.27c-.05.26.05.54.32.76.14.21.15.42.29.64.11.09.12.24.15.38-.47-.62-.86-1.35-1.17-1.95-.43-.45-.5.14-1.21-.41,0,0-.02,0-.02-.02-.06-.03-.12-.08-.18-.14v-.17l.12-.12s.05-.02.06-.03c.09-.06.18-.12.27-.15.38-.18.76-.27.68-.74-.29-.51-.47-1.33-.59-1.98h.21v.76h.46v-.29c.66,1.23,1.47,2.39,2.37,3.41-.57-1.12-1.15-2.26-1.74-3.42-.02-.03-.02-.05-.03-.08-.14-.26-.26-.51-.39-.77-.06-.14-.14-.29-.21-.42-.02-.03-.03-.06-.05-.09-5.8-11.65-11.73-24.94-17.47-37.94h0c-2.77-6.27-5.48-12.49-8.11-18.4-1.65-4.15-3.26-8.22-4.87-12.36h-1.89l-2.12,1.36-1.51-1.06-1.51,2.12-3.63,1.51-1.82-1.51.46,3.63-21.79.76.76,16.04,3.63,5.75,1.06,6.21,2.57,1.06,2.12-1.36h0l-1.82,2.42-12.41,3.94,2.27,4.84,2.57,2.57-2.12,1.82,1.97,2.12-.6,5.15h0s0,0,0,0h-.15v.1l-2.72,1.72-.45.76-5.44-.45-3.63-9.08h0s-1.06-2.58-1.06-2.58l-3.33-3.63.76-1.36h2.27l-1.52-4.39-8.02.3-.3-7.57-3.63.3v-7.27l-7.26.46-.46-4.39-4.69,1.51-1.36-.76-1.21,1.36-2.12-1.36-8.02,1.82-5.45,3.93-.3,4.09h-2.57l-1.82,2.42-.3-2.42-1.82,1.36-1.82-.76-1.51,2.27-.3-1.06-4.39.6-2.27-1.06v-4.69l2.57,1.51-1.36-1.82-.76.3-.45-2.12-21.34.3.76,33.75h-14.53l.3,21.49,2.87.76-2.88-.76-6.51,1.82-1.82,2.57-8.78-3.03-2.12.46-4.01,3.97c.26.11.59.15.92.18l-.24.24h.46l.14-.21c.3.03.57.06.76.14,1.24.51-.83,1.79.21,2.28.24.12.33.44.41.62.11.08.17.12.15.45-.12.74.54,1.53,1.04,2.06,1.2,1.12.35,1.38,1.39,2.13.94.36,2.22.97,2.36,1.91h-1.01v1.06h.3v-.3h.3v-.45h.41c-.02.24-.11.5-.3.79-.21.18-.56.26-.39.36.47.2,1.42.17,1.85.45.67.59,1.41-.68,2.15.35.26.24.5.58.79.82.18.14.4.23.59.27.51.24,1.36-.3,1.27.03-.24.32-.18.76-.68.88-.21.63.09,1.45-.21,2.15-.18.98.3,1.75.05,2.72-.14.64-1.2,1.53-1.32,1.82-.08.06-.17.21-.05.26.29-.08-.08.74.41.47.24-.3.17-.79.53-.65.38.15.06.64-.06.94-.43.76-.74,3.78.48,3.15.12-.03.82-.56.68-.23-.18.61-.33,1.71-.57,2.23-.12.24-.44.42-.48.73.09.46.44,1.27.59,2.2.03.12.08.21.09.27.05.2-.32-.06-.6.12-.35.21-.15.61-.06.74-.17.47-.61,1.32-.97,1.5-1.38.45-.56.56-.03,1.39.24.41.24,1.03.29,1.5.18,1.5,1.12,1.83,1,2.9-.02.23-.08.49-.21.8-.35.79.09.51-.45,1.27-.18.29-.4.63-.46.97.12.44.23.65.27.89h-.5v-.45h-.76v.45h.09c.08.02.17,0,.27,0,.15,0,.3.03.39.2v.11h.53c0,.21-.02.49-.08.91.26,1.04-.6,1-1.04,1.57-.02.09.06.17.15.23v.02s.02,0,.03.02c.08.05.18.11.23.18.65.61.3,1.33.17,2.35-.02.53-.77.79-.66,1.24.09.17.15.32.2.45h-.27v.3h.3v-.21c.12.36.14.68.27,1.15,0,.08-.03.09.05.12.05,0,.09,0,.14.02v.44h.63c.17.21.26.48.26.73.06.06-.02.18-.15.33h-.44l.27.18c-.45.44-1.15,1.01-.66,1.24.47.17.5.74.48,1.18-.11.82.24,1.47.11,2.42-.03.47-.45.86-.8,1.18-.12.12-.24.23-.32.33-1.59,1.82,1.75.5-.43,3.83-.32.71-.24,1.21-.2,1.88-.02.65-.53,1.42-.77,1.97-1.14.91-1.01.79.18,1.47.06.08.11.14.14.21h-.12v.45l.2-.29c.27.79-.27,1.76-.23,2.5-.05.06-.09.12-.15.15h0s-.02,0-.02,0c-.18.12-.44.15-.62.38-.26.61-1.21.82-1.56,1.26-.11.3,1.26.59,1.36.67-.2.88-2.07,1.07-2.57,2.12-.59.92.21,2.21-.02,3.15-.26.88-1.39,1.77-1.29,2.69.02.43.03.82.02,1.15-.02.15-.03.27-.06.41.24.97-.23.29-.94.98-.6.48-.56,1.51-.48,2.13-.09.76-.71,2,.12,2.63.97.61-1.01,1.39-.92,1.94-.06.27,1.03.32.79.44-.11.06-.42.14-.82.3-.57.2-.68.74-.44,1.29.02.27.5.83-.02.83-.27.05-.63.05-.92.09-.63.08.21,1.03-.11,1.48-.26.33-.85.42-.98.86-.15.54.97,1.24.65,1.56-1.62,1.44-4.6,3.56-4.68,6.11v.08l3.54-.11h0s-3.54.11-3.54.11c-.02.06-.02.14-.02.2,0,.23,0,.45.03.65.02.17.03.33.08.48.02.12.05.24.09.36.03.17.08.32.15.47.05.15.11.3.17.45.15.33.3.68.47,1.06h-.45v.15h.15l.33-.11s0,0,0,0c.03.09.08.17.12.26-.02.02,0,.02,0,.03.05.11.09.21.14.33.03.11.08.23.12.35.02.05.03.09.05.14.08.24.15.52.21.8.03.06.05.14.06.2.05.2.09.38.14.58.02.02.02.03.02.06.14.51.27,1,.44,1.35.02.03.03.08.05.11v.7c-.06.11-.15.21-.23.36,0,0-.02.02-.02.03-.11.2-.18.46-.21.73-.06.54,0,1.18.14,1.56.08.24.17.35.38.33.45-.11.65.08.11.91-.23.47-.41.95-.57,1.44-.02.05-.03.08-.05.12-.08.21-.14.42-.2.63-.05.12-.08.24-.11.36-.02.03-.02.06-.03.09-.6,2.34-.77,4.77-1.18,7.26-.52,3.72-1.82,6.8-3.29,10.27-.32,1.92-2.37,3.83-2.12,5.66.36,1.68.68,2.89,1.56,4.07.53.23,1.36.21,1.94.64.05.03.09.06.14.09h-.2v.3h.3v-.23c.18.14.33.24.46.36.73.61.68.91,1.18,1.57.26.59.89.64,1.72,1,.44.08,1,.73,1.36.35.62-.73.17-2.5-.5-3.45-.23-.53.02-.47.3-.23.71.57,1.6.38,1.59,1.21-.17,1.36-.35,2.39.29,3.94.36.8.68,1.62,1,2.44,0,.03.02.06.05.09l-.02.02c-.02.11.03.15.09.2.03.11.08.21.12.32.2.55.42,1.09.66,1.64.3.5.77.05,1.06.53.42.33.76.65.83,1,.21.15.39.29.62.44.49.27,1.76.21,2.44-.08.32-.02.79.77.89,1.23.08.14-.17.08-.33.11-.21.08-.03.24.06.41,0,.14-.5.53-.32,1.11.03.2.17.45.36.73.23.32.55.65.82.83.03.03.06.06.09.08h.02c.06.03.11.06.15.08.44.14.91-.09,1.36-.05.3.06.68.08,1.06.05h.03c.89-.08,1.83-.42,2.12-1.32.61-1.66-.74-2.95.56-3.75.06-.05.12-.08.18-.11.05-.03.09-.06.15-.11.11-.06.23-.14.27-.24.02-.03.03-.06.03-.09.03-.09-.06-.26-.17-.45-.14-.24-.32-.53-.38-.76-.02-.03-.03-.06-.03-.09,0-.14.03-.27.09-.39t.02-.03c.12-.26.3-.5.29-.8-.02-.18-.03-.32-.03-.44-.02-.15-.03-.26-.03-.36,0-.08,0-.14.02-.21,0-.08,0-.17.03-.27,0-.03.02-.08.02-.11.02-.03.02-.06.03-.11.14-.54-.06-1.72-.35-2.19.5.11,1.06.57,1.68.51.05.02.11,0,.17-.02h.02c.08-.02.15-.05.23-.09.43-.39-.05-1.01-.47-1.11-.38.05-1.12.02-.71-.38.45-.33.3-1.36.59-1.6.26-.21.42.15.36.39-.23.26.27,1.35.82,1.14h.03c.24-.05.39-.39.51-.74.12-.38.18-.74.23-.76.06-.02.12.03.2.08.03.03.08.06.11.08.03.02.05.03.06.03t.03.02c.21.12.38.08.45-.02.09-.11.08-.27-.08-.39-.74-.29-1.2-.59-1.6-1.54-.26-.59-.79-1.21-1.47-.92-.09-.02-.15-.08-.2-.17-.14-.44-1-1.33-1.03-1.51h.24v-.17c.26-.05.6.05.77.03.94.18,1.21,1.2,1.85,1.68.29.26.38.76.63.97.08,0,.15-.27.12-.67,0-.27-.02-.63-.05-1-.02-.18-.02-.36-.05-.54-.06-.53-.2-1.06-.48-1.45-.62-.95-1.51.27-1.65-.14.02-.24.23-.3.45-.53h.21v-.15c.14-.09.3-.2.47-.29.42-.26.91-.54,1.24-.71.3-.13.42-.23.42-.26h0s0,0,0,0c0,0,0,0,0,0,0-.05-.15-.03-.41.05-.06.03-.11.05-.17.07-.07.03-.14.06-.19.08h0s0,0,0,0c-2.19.68-2.54-2.03-4.57-1.73-.98.26-.62-1.38-1.39-1.97-.7-.95-1.04-.42-2.32-.91-.27-.11-.59-.32-.85-.53-1.12-1.12-1.68-.79-3.41-1.5-.41-.2-1.51-.73-1.69-.88-.14-.26.15-.5.15-.76-.27-.95,1.76-2.27,3.16-2.38.8-.12.91-.33.38-.91-.23-.33-.41-.24-.7-.15-.29.09-.03-.98.23-1.38.64-.8,1.42-1.56,1.68-2.75.62-1.77-3.59-5.19.82-3.78.68.57.82,1.38,1,2.48.09.59.41,1.48.86.67.27-.52.48-.89.66-1.17h0c.08-.12.15-.23.23-.3.62-.76.76.32,1.89,1.36.29.03.15-.7.06-1.15-.02-.38.06-.71.08-.79,0,.68.89,1.44,1.18,2.17.05.12.08.24.08.36.02.2.02.42.03.62-.02.08-.02.14.02.2v.03c.09.44.74.24.86.54.02.02.02.05.03.06.39.88,1.56,1.35,2.48,1.42,1.15-.05,1.74.41,2.8.82-.12,0-.23.05-.29.12-.18.15-.26.14-.38.12-.29.17-1.24-.26-1.56-.26-.2-.02-.44-.02-.73,0,.46.02.85.14,1.53.38.23.11.41.35.5.44.11.06-.09.05-.14.24.24.77.8-.14,1.04-.46.12-.15.36-.39.3-.47-.02-.02-.03-.03-.05-.05.29.08.59.08.7.33-.02.29.79,1.57.95,1.98.12.36-.05.73-.26,1.03-.26.33-.46.53-.41.59.02.03.12,0,.33-.03.95-.24,2.07.05,2.15,1.04h-.5v.46h.48c-.09.53-.32.98-.15,1.44.08.54-.09,1.32-.11,1.86.18.71-.11,1.07-.36,1.5.02.21.08.42.12.65.11.45.24.94.21,1.54-.03.15-.09.29-.17.41-.03.03-.05.05-.06.06-.08.11-.17.18-.27.27-.14.11-.27.21-.42.32-.6.43-1.21.79-.8,1.39.05.03.08.06.11.09.05.02.08.05.11.09.2.14.36.32.51.51.12.15.24.3.35.45.05.05.09.09.14.15.02.03.05.08.09.11.06.08.12.17.2.24.14.17.3.32.47.47.26.21.56.39.94.5.05.02.09.03.14.05h.02c.14.03.27.08.42.14.02,0,.03,0,.05.02.08.03.18.06.27.09.05.02.09.03.15.06h.02s.09.03.14.05c.09.03.2.06.3.11h.03s.08.03.12.05c.11.05.21.08.33.11.09.03.18.06.27.08.08.03.15.06.23.08.36.11.74.2,1.07.24,1.24.15,2.23-.17,2.1-1.86-.09-.59-.35-1.14-.64-1.66-.42-.8-.86-1.59-.79-2.5.03-.26.05-.52.06-.76,0-.62-.05-1.23-.12-1.83-.09-.7-.21-1.39-.33-2.09-.06-1.28.94-2.27,2.1-3.15.03-.02.06-.03.09-.06.18-.14.38-.27.57-.41.76-.53,1.51-1.01,2.03-1.5.14-.09.21-.08.2.09.05,1.53-.89,3.8.83,4.25.63-.62.2-1.85.35-2.74.11-.85.98-1.09,1.24-1.39.77-1.24.92,1.27.35,1.75-.48.56-.82.62-.59,1.53.11.59-.02,1.09.02,1.53.14.4.89.46.67.5-.24.12-.65.17-.91.27-.09.03-.11.06-.08.09.02.03.05.05.09.08.62.2,1.2.51,1.67.97.23.23.42.48.57.77.05.06.09.12.11.2.08.12.12.26.17.41.06.18.11.38.14.59.05.21.06.45.05.7-.02.38-.03.74,0,1.09.02.26.06.52.14.74.06.18.14.35.26.5,0,.02,0,.03.02.03.15.2.36.38.63.53.17.29.03.76-.03,1.09-.21.76.14,1.47.21,2,.03.14.05.27.02.38-.11.3-.39.58-.68.83h-.02c-.36.3-.74.54-.89.79-.05.09-.05.18-.03.29.12.35-.15.67.03.88-.08.38-.56.27-.47.77.12.27.23.63-.14.77-.58.15.33,1.11.33,1.15-.46.09-.62-.05-.94-.23-.45-.15-.79-.76-.38-1.06.02-.05,0-.09-.06-.09-.23.03-.47.36-.67.54-.17.18-.39.43-.47.64-.17.23.47-.11.8.09.11.06.24.12.32.18.2.14.03.18-.14.2-.08.02-.02.05.2.12.14.05.32.15.47.2.05.02.08.03.09.03q.08.03,0,.06s-.06.02-.11.03c-.18.05-.48.09-.7.12-.44.6-1.09.97-1.76,1.32,0,0-.02.02-.03.02-.65.33-1.32.66-1.82,1.15v-.24h-.3v.3h.26c-.2.2-.36.41-.48.67-.12.35-.61.12-.68.08-.05,0-.11.05-.15.09-.08.15-.42-.11-.68-.17-.4-.05-.56.33-.52.76.02.06.03.12.06.17.02.06.95.82.91,1.23,0,.15-.21.01-.42.03-.11,0-.38.03-.38.48,0,.03,0,.08.02.11.08.48.88.7,1.54.95.02.02.05.02.08.03v.27h.45v.45l-.41.27c-.7-.33-1.8-.89-2.24-.6.32.02,1.98.3.76.42-1.29-.26-3.48.94-4.32,2.03-.6.82-.45,1.57,1.38,1.66.26.27-.65.74-1.22.76-.71.03-1.58-.56-1.79-.05-.15.17-.35-.02-.51.11-.32.4-.47,1.01-.7,1.61h-.03v.08c-.14.33-.3.65-.53.89-.26.23-.5.47-.68.73-.14.14-.24.29-.33.44l.03-.02,23.61-.45h.45l.17-.02,7.51-.14h.05l2.98-.06,4.9-.09h.29l15.59-.3v-.33.34s25.88-.45,25.88-.45l28.6-.3,9.53-.3,37.38-.45h0s17.1-.3,17.1-.3l12.71-.46-1.51-22.4h1.51s4.99-.15,4.99-.15l.53-.02,14.3-.44h.15l19.98-.61.27-.6,1.18-2.54.36-.79.42-.05,3.21-.29.32-.03.39-.05.2-.02h.09l.12-.02-.17-.32Z" fill="#1f4283"/></a><a xlink:href="https://fdotwww.blob.core.windows.net/sitefinity/docs/default-source/planning/fto/trends---conditions-folder/ne-transportation-trends-and-conditions.pdf"><path id="Northeast_Region" d="M778.06,203.77c-.38-.85-.97-1.3-1.53-1.83,0-.08-.02-.14-.03-.2-.18-.18-.36-.39-.51-.62v-.02c-.3,0-.17-.5-.38-.5-.05,0-.08.05-.11.11,0-.02-.02-.02-.02-.03-.48-.88-.39-2.01-.71-2.94-.08-.27-.21-.5-.38-.71-.09-.12-.18-.23-.29-.35-.06-.06-.12-.12-.17-.18v-.53l-.18.18c-.18-.46-.23-.97-.57-1.2-.92-.65-1.41-1.8-1.71-2.92-1.38-3.83-3.84-5.72-3.52-9.91.35-1.35-.03-2.91-.08-4.32h.32v-.3h-.33c0-.54.06-1.07.26-1.54.09-2.66-2.03-5.19-2.95-7.32-.33-4.34,4.42,9.76,4.34,6.28-2.77-8.88-4.54-18.04-6.69-27.16-1-4.43-2.36-9.05-3.48-13.68h0c-1.33-5.43-2.35-10.91-2.12-16.21.38-3.49-.98-6.99-1.63-10.32-.62-1.77-1.45-3.42-2.18-5.11h0c-.86-1.95-1.57-3.97-1.6-6.29-.85-5.61,1-11,.74-16.54-.2-.58-.45,1.35-.5,1.12-.54-1.24-1.62-2.44-3.07-2.2-.58-.09-1.24-.62-1.82-1.5-1.3-3.48-4.72-1.59-7.02-.73-1.39.15-2.85-.53-4.22-.88-1.62-.53-2.4.29-3.56-.27-.76-.73-.94-1.3-1.89-.91-.61.29-1.39.26-1.85-.27-.57-.68-.92-1.79-2.04-1.76-.18-.03-.32-.06-.46-.03-.33.08.32.58-.06.7-.47.15-1,.11-1.5,0-2.74-.35-4.66-.62-6.42-2.59-.52-.38-1.01-.73-1.59-.8-.98-.17-1.65,1.3-2.3.17-1.88-3.16-5.07-1.65-8.5-2.91-1.45-.32-2.51-1.44-3.1-2.65-.79-1.36-1.44-.89-2.2-.32-1.04.58-2.06-.32-3-.7-3.77-.59-1.54,5.6-5.04,5.51-1.21-.27-2.68-1.82-3.37-.5-.6.73.5,2.39,0,3.34-.44,1.09-2,.8-2.26,1.66-.23,1-.35,1.6-.17,2.86.8,2.84-1.53,6.64-.32,9.08,1.14,3.89,4.65,7.13,4.15,11.38-1.29,3.31-.47,6.84-.83,10.21-.45,2.45-1.82,4.27-1.92,6.69-.02.97-.66,1.42-.62,2.37.83,2.71.56,4.53-.62,5.37l.02.44h0s-1.81,1.06-1.81,1.06l-6.51-1.36-4.09,1.36-3.18-2.88-2.27-5.45,1.21-7.57-4.39-6.66.76-2.42,1.82-1.51-7.72-.3-14.08-1.21h-4.84s-7.57-.61-7.57-.61h-5.75l-4.39-.45-6.96-.3h0s-27.24-1.81-27.24-1.81l-21.04-1.06-5.45-.45-13.46-.76h0s-1.06-.3-1.06-.3h-3.93l-12.41-.76-15.28-1.06,1.06,8.78-3.63,1.82v1.82h-3.63v1.82h-3.63v2.12l-2.88.3-.76,1.51,1.82,9.08-3.18,3.33-.76,2.88-2.57.76-1.06-1.51-1.51,1.82-.3,3.63,2.12,2.57-2.88,1.36-.3,1.51h0l-1.82,2.88-8.78,4.69-1.06,6.66-2.88.61-4.39,11.35-.05.53c.12.15.27.27.47.32.63.18.66.68.68,1.06.59.39,1.42.74,2.06,1.2,1.63.98,2.81,2.04,3.83,3.48,1.56.89,3.89,2.39,5.8,3.35,1.15.5,2.56,1.36,3.27,1.65.53.23.88.17,1.15.77.44.63.59,1.28,1.33.86.88-.35,2.24.97,2.94.82h.02v.5h.3v-.53c1.29-.03,2.09,1.11,3.12,1.91,1.32.86,2.2.2,2.81,1.5,1.04,1.59,2.47,1.24,3.78,2.71,3.01,1.62,6.36,4.51,7.9,7.51.66,2.27,2.56,4.15,3.9,5.75,1.07.94,1.71,3.37,1.73,4.66-.05.39-.27.76-.2,1.14.03.11.11.21.17.33.03.03.05.08.08.12l.02.02c.54.65-.14,1.53.36,1.69.94.03,1.92,1.09,2.24,2.09,1.07,2.66,4.07,4.01,6.48,3.83v.27h.3v-.26c.24.05.24.23.35.62.29,1,.88,1.85,1.62,2.51h-.15l.3.15c.8.68,1.79,1.15,2.77,1.44,2.27.23,3.57.63,4.33,1.27h0c.27.21.48.47.62.77h-.45v-.3h-.61v.76h.3v.3h.3v.46h.45l-.45.3h.45v.76h.3c-.02.91-.09,1.98-.06,3.22.12.53.5,1.06.58,1.62.03.23,0,.41-.06.54-.02.03-.02.05-.03.06-.23.39-.73.53-.66,1.11.05.8.08,1.47.12,2.07h-.18v.46h.23c.06.73.17,1.44.33,2.36.3,1.41.89,2.21.77,3.56.06.62.48,1.03,1.03,1.26.85.5.76,1.41,1.89,1.38,1.94.5,3.45,3.06,5.34,3.3.85,0,1.39,1.91,1.97,2.78.24.68,1.65,1.17.95,1.74-.15.18.14.17.5.12v.15h.46l-.27-.18c.38-.08.79-.15.97-.14.33.06.06.67.42.71.36.02.68-.27.95-.39.15-.08.29-.09.39.06.14.11.27.15.46.21.44.11.94.15,1.38.23,1.39.27,1.56.98,2.57.88.89,1.24,1.56,4.48,2.69,5.98.41-.05.73.06.86.36.08.18.11.42.05.74-.02.14-.02.35.05.45.08.2.27.18.44.21.2.05.23.24.26.59.08.45-.05,1.09.29,1.07v.11h.45v-.12c.49.24,1.14,1.24,1.62,1.53.05.12.08.26.08.41.03.14.03.27.03.41.05.38.12.68.64.65.3.08.32.24.2.45-.12.21-.42.5-.64.79-.47.58-.79,1.71-.23,2.39l.51-.83-.51.83s.06.09.11.14c1.89,1.48,4.28,1.72,6.05,3.21.62.3,1.5.39,2.12.74h-.14v.3h.3v-.2c.17.11.3.24.41.41.29.41.45.83.77,1.09.41.27-.06.32.05.86.11.88.27,1.95-.24,2.71-.27.35.08.74.83.62h.05c.21-.02.79-.15.82.09-.21.48-1.06,1.21-1.01,2.06.27.51-.03.94.18,1.33.12.06.3.08.49.11.09.02.17.03.24.03.15.05.29.09.38.17.11.17.12.38.15.59.14.82.88.98,1.36,1,.47.11.73.38,1.2.67.57.3,1.69-.11,2.42-.08.35,0,.66.3.89.14.18-.92,1.08-1.54,1.88-1.48.77-.08.29.76.65.91.05.02.11,0,.15-.05.03-.02.08-.05.11-.08.06-.06.14-.14.2-.18.05-.03.11-.06.15-.08.21-.02.41-.12.6-.24l.3-.23c.26-.17.5-.27.74-.09,0,.08-.23.8-.14,1.01.23.23.76-.05,1.06.29,1.39.26,3.03-.18,4.59.05l.59.23h-.18v.3l.27-.27c1.17.42,2.47.8,3.81.66.45-.09.8-.62,1.15-.83l.21.14v-.23c.15-.03.3,0,.47.17.12.11.23.27.35.39.7.74.8.09,1.21.58.85.53,1.97-.44,2.66-.4.33.02.56.27.61,1.08.12.47.48.65.47,1.01-.82,1.39-.26,3.1,1.21,4.1.18.29-.89.57-.55.95.17.21.38.49.53.68.06.23-.08.35-.27.44-.29.14-.7.21-.88.41-.03.03-.05.06-.06.08-.51.61-.64.85-.92,1.38-.27.97,1.79.23,2.27.48.38.08.85,0,1.23.11.24.06.44.18.54.45-.08.76-.8,1.15.36,1.56.89.17,1.39,0,1.67-.03.35-.05.32.12.29,1.54.18.61.27,1.42.08,1.62-.05.15-.02.33.08.47.27.44,1.07.48,1.14,1.15-.03.15-.11.27-.21.41,0,.03-.02.05-.05.06-.36.47-1.01.88-1.14,1.51-.05.2-.05.41.05.65.03.23.21.36.45.44l4.01-3.97,2.12-.45,8.78,3.03,1.82-2.57,6.51-1.82-.3-21.49h14.53l-.76-33.75h0s21.34-.3,21.34-.3l.45,2.12.76-.3,1.36,1.82-2.57-1.51v4.69l2.27,1.06,4.39-.61.3,1.06,1.52-2.27,1.82.76,1.82-1.36.3,2.42,1.82-2.42h2.57l.3-4.09,5.45-3.93,8.02-1.82,2.12,1.36,1.21-1.36,1.36.76,4.69-1.51.46,4.39,7.26-.45v7.26l3.63-.3.3,7.57,8.02-.3,1.51,4.39h-2.27l-.76,1.36,1.67,3.23,2.57,3.03,1.51,4.39,1.66,2.88,1.66,2.12,3.33-.15,2.88-1.36,2.12-2.42-.15-3.63-2.12-1.21,2.27-2.72-5.45-6.81,13.17-4.59,1.82-2.42-2.12,1.36-2.57-1.06-1.06-6.21-3.63-5.75-.76-16.04h0s21.79-.76,21.79-.76l-.45-3.63,1.82,1.51,3.63-1.51,1.51-2.12,1.51,1.06,2.12-1.36h1.89c-.38-.92-.74-1.86-1.11-2.8Z" fill="#1f4283"/></a><a xlink:href="https://fdotwww.blob.core.windows.net/sitefinity/docs/default-source/planning/fto/trends---conditions-folder/nw-transportation-trends-and-conditions.pdf"><path id="Northwest_Region" d="M482.66,73.72v-3.48h-.71l-.05-.41v-1.11h-.14s-.02-.15-.02-.15l-3.22-.14h-.11s-5.9-.31-5.9-.31l-3.48-.3h-1.36s-11.35-.76-11.35-.76l-17.1-1.06v.15h0v-.15h-1.98l-1.65-.15h-2.27l-.45-.15h-1.97l-3.78-.3h-.88l-5.92-.39-.62-.07h-.46s-1.5-.05-1.5-.05l-.62-.1h-1.21l-3.03-.15h-.3l-1.66-.15h-2.12l-.46-.15h-2.42l-1.36-.15h-.3l-1.97-.15h-1.21l-.6-.15h-1.53l-.79-.04-1.62-.11-1.62-.07-11.93-.66-.22-.03h-.36l-3.35-.18-.83-.12h-1.21l-2.27-.15h-.3l-1.97-.15-1.21-.15h-2.27l-1.06-.15h-1.21l-1.06-.15h-1.21l-1.06-.15h-2.27l-1.21-.15h-1.21l-1.21-.15h-1.06l-1.21-.15h-1.82l-1.82-.15-1.82-.15h-1.82l-1.21-.15h-.15l.07.16h-.07s0,0,0,0l-3.63-5.14-1.82-.3-2.42-8.47,1.36-2.88-1.36-3.63.3-1.36-5.15-6.21.46-3.63-2.57-1.51.3-3.18-18.76-.45-33.9.45h-.61l-3.63,2.88h0s3.63-2.88,3.63-2.88l-27.24-.45h-30.88s-9.08-.3-9.08-.3h-7.26l-12.41-.45-9.38-.3v.33s0-.33,0-.33h-14.23l-17.86-.76h-.21v-10.44h0s-37.83,0-37.83,0h0v9.3l-13.11-.22-21.79-.76-23.32-.42c-.18.03-.34.08-.52.11.17-.04.34-.08.52-.11l-1.8-.03.06.73.39,4.72-4.65,10.81c0,.09.02.18.03.27l1.32,2.97c1.62,2.22,4.28,4.12,5.99,6.16l1.69,1.59,1.6,4.53s0,0,0,0l.21.62,1.22.78s0,0,0,0l8.28,5.29h0s0,0,0,0l-.12.12v.15h-.15v.15h.3l.15.15h.45v.15h.15v-.15h.12s.03.02.03.02h0v.29h.15v.3h.15v.15h.45v.3h.3v.3h.76v.15h.3v.15h.15l.15.15v.3h-.15v.15h.15v.3h.15v.15l-.15.15h.3v.15h.03s.03.15.03.15h-.06v.3h.09s.03.18.03.18h0s-.12.12-.12.12v.3h.15l.03.03h0s.23,1.64.23,1.64l.33,2.42h-.14l.15.15h0s0,0,0,0v.3h-.15v.61h.15v.3l-.15.15v.27h0s-.11.18-.11.18h-.04v.1h0s-.06.11-.06.11h0s-.09.09-.09.09v.07h0s-.03.05-.03.05h0s-.12-.12-.12-.12h-.3v.3h-.3v.3l-.15-.15v.3h.15v.3l-.15.15v.46l-.15.15v.26h0s-1.95,3.68-1.95,3.68h0s-.16,0-.16,0v.3h.01,0s-.02,0-.02,0v.02l-.15.29h0s-.15.3-.15.3h0l-.15.15v.12h0s-.01.03-.01.03h-.44v.46h-.15v.3l-.15.15v.3h-.3v.3h-.15v.3h.15v.15l-.24.45h-.06s0,0,0,0v-.15h-.15s0,0,0,0v.15h.15v.11l-.02.04h-.29v.15h-.3v.3h.15v-.15h.15v.23h0s-.09.17-.09.17h0s-.21.21-.21.21h.11,0s-.33.62-.33.62c0,0,0,0,0,0,0,0,0,0,0,0l-.07.13h0s0,0,0,0h0v.15h.14l.11.12s0,0,0,0h0s.04.05.04.05h0v.44h.15v.15h.15v.15h.38s.38.39.38.39h0v.06l.15.15.15.15v.15l.15.15h.15s.15.15.15.15l-.05.15h-.11v.38h0s-.2.68-.2.68h-.11v.15l.04.04h0s-.12.42-.12.42h0s-.04.14-.04.14h-.04v.15h0s0,0,0,0v.15l.15.15h.02l.43.73v.33l.15.15v.15h.15v.15h.15v.15h.15v.15h.15v.15h.15v.15h.3v.15l.15.15v.15h.15v.15h.76v.15h.15v.15l.15.15v.15h.3v.15h.3v.15h.3l.15-.15h.48s.26.14.26.14h.02s.01.01.01.01h0s2.21,1.18,2.21,1.18h0s.01.06.01.06h0s-1.5,1.44-1.5,1.44l-1.65-.11h-4.69l-.15-.15h-4.24l-.15.91v3.78l-.15.76v3.78h-.15l-.15.15v.15l-.15.15v.15l-.15.15h-.15v.15h-.15v.15h-.15v.15h-.15l-.3-.3h-.15v.3l.15.76v.3l.15.46v.3h-.45l-.15.15h-.3l-.3.15-.15.45v.15l-.15.45v.3h0s-.09.27-.09.27l-1.27,3.81s23.52-4.92,23.9-4.92c.71,0,1.6.33,2.35.61.13.05.27.09.41.13,1.74.56,3.64.45,5.49.25.55-.06,1.1-.12,1.63-.18,1.41-.33,2.91-.15,4.08-.69.39-.18.75-.45,1.05-.83.04-.05.08-.08.13-.11.33-.17,1,.04,1.87.21.09.02.18.04.28.05h0s0,0,0,0c1.54-.1,3.19-.39,4.83-.77,1.53-.36,3.05-.81,4.47-1.28.42-.15.57-.2.7-.03.55.25,1.22.15,1.96-.02.81-.19,1.7-.47,2.57-.5,3.1-.54,6.19-1.09,9.28-1.6.75-.12,1.5-.23,2.25-.35,3.63-.58,7.26-1.13,10.86-1.58v-.03l.07-1.72c1.49-.05,2.99-.09,4.48-.14,1.23-.04,2.46-.08,3.69-.13,2.87.05,6.11.53,9.2.8,1.27.11,2.52.19,3.71.19,5.74-.03,22.34,3.87,22.34,3.87,0,0,0,0,0,0h0c5.59.95,11.14,2.22,16.6,3.79,9.11,2.62,18,6.1,26.49,10.34h0c.08.03.14.08.21.11,8.79,4.43,17.15,9.69,24.91,15.71,1.59,1.15,1.91,1.44,3.44,2.57.12,0,15.12,9.41,20.29,16.24,5.21,6.89,11.21,4.19,16.68,9.53l.12.12h0c1.48,1.48,2.92,3.55,4.3,6.58.48,1.27,1.11,2.45,2.07,3.39.83.7,1.62,1.38,1.75,2.45.83,2.27,1.26,5.3.68,7.78-.18,1.77-.06,3.81-.2,5.71h-.29v.3h-.3v.46h.51c-.03.38-.08.76-.15,1.12,0,.15-.03.29-.06.43v-.18h-.3v.45h.23c-.35,1.06-1.41,1.57-2.65,1.66-1.11,0-2.27.91-2.98.21-.41-.45-.77-.98-1.09-1.57h.29v-.76h-.45v-.61h-.5c-.77-1.85-1.27-3.95-1.62-5.67-.27-1.33-1.27-1.91-1.26-3.53-.7-3.6-.5-7.3,1-10.52.09-.44.05-.68-.18-.66-4.92,4.01-.12,15.68,1.57,20.99.77,1.72,1.86,3.74,3.1,5.07.44.4.59.29.42.05-.24-.36-.11-1,.33-1.17.98-.53,2.66-1.22,4.66-1.47,1.47-.33,3.32.14,4.99.36-.01.03-.03.05-.03.08,0,0,0,0,0,0,0,0,0,0,0,0,.03.03.08.06.12.09,1,.77,3.45,1.57,4.74,2.71,1.45.92,3.04,2.59,4.81,3.39,1.44.51,3,.35,4.06-.62,1.06,1.16,3.01,2.17,3.96,3.62.76.92,2.01.77,3.06.5,1.75-.51,3.24-.97,5.48-1.97.68-.33,1.75-.55,2.28-.98-.11.45.83.02,1.41-.32,3.32-2.2,6.93-4.65,10.68-6.19,2.57-.92,5.18-1.5,7.49-3.09,2.78-1.85,5.48-4.9,7.76-7.25l.14-.17c.1-.1.2-.21.3-.32,1.84.42,3.64-.77,5.36-1.28,1.56-.92,3.42-1.27,4.68-2.57.56-.61.59-2.18-.35-2.06l-.03.02c-.08.03-.12.35-.33.77-.43.51.26,1.57-.38,1.32-.3-.24-.44-.7-.82-.49-1.66.33-2.17,2.94-3.95,3.27-.85.2-1.45-.41-2.01.5-.39.41-1.15.48-1.81.11.65-.8,1.17-1.65.71-1.56-.4.43-.76.91-1.11,1.39-.36-.08-.6.07-.28.38-.79,1.07-1.62,2.14-2.84,2.86-1.56,1.04-3.45,1.75-4.28,3.04-.06.14-.11.26.03.32.17.08.62-.12.91-.35.29-.24.41-.35.27-.12-.35.51-1.36,1.63-2.09,1.68-.86.03-1.04.17-1.71.91-1.92,1.14-4.34,1.41-6.66,2.33-.47.08-.73.11-.92.15-.24.06-.36.14-.62.33-1.6.85-3.48,2.27-5.24,2.41-.12.06-.18.18-.24.3-.03.09-.06.17-.11.24-.05.33-.38.05-.56.23-.26.41-.52.94-.91,1.01-.73.62-1.75,1.2-2.42,2.04-.14-.15-.83-.03-1.04.09-1.08.42-2.17.95-3.24,1.14-.44.05-.59.29-.71.39-.2.02-.27-.08-.4-.09-.12.09-.05-.09-.2-.12-.41.08-1.06.79-1.39.79-.91.12-2.69-.64-3.65-.97-.85-.24-1.6-.47-2.38-1.3l-.11-.12c-.41-.37-.92-.84-1.42-1.17.23-.28.44-.6.6-.99.53-1.14,1.24-2.66,2.13-3.35.06-.09.03-.12-.06-.17-1.91-.95-3.86-2.45-6.25-1.83l-.2.05c-.73.14-1.45.45-1.72.59-.44.23.48.17.42.4-.08.18-.48.15-.58.3.14.38,1,.06,2.01.47.6.2,1.71.33,2.21.56-.12.12-.71.08-1,.06-2.09-.03-3.5-.71-5.37-1.5-1.63-.4-3.45-.42-5.15-.21-.4-.04-.75-.1-.85-.2,1.03-.51,2.95-.89,4.57-1.21l.79-1.97-.78,1.97c.83-.17,1.57-.3,2.09-.44.45-.08.91-.18,1.35-.29v.08l.09-.09c3.27-.8,6.33-2.23,9.87-2.12,3.81-.29,9.43,2.8,12.12-1.09.44-.73-.47-1.6-.26-1.8.36-.18.89-.14,1.32-.18.53-.05-.77-1.76.09-1.21.24.14.45.38.66.54.49.47.88-.11,1.23-.09,1.53.12,2.15-2.04,3.1-2.59.24-.63.59-1.06-.08-1.35-.36-.2-.83-.48-1.11-.83-.14-.18-.17-.39-.14-.55h.03l-.03-.02c.08-.18.24-.29.52-.18.53.26,1.03.67,1.65.83,1.04.38,2.8.12,3.04-.7.26-.59-.21-1.19-.51-1.68-.2-.32-.36-.62-.47-.86-.14-.33-.23-.49-.17-.47.83.68,1.91,2.07,3.19,1.97.98-.23,1.15-1.38,1.66-2.07h.2v-.21c.09-.09.2-.15.3-.21.2-.15.48-.21.66-.3.11-.05.14-.09.08-.03-.05.05-.15.12-.26.26-.98.74-.89,2.51-1.5,3.16-1.94,1.91-2.97,5.01-4.65,7.07-.38.49-.15,1.11.54,1.29,1.67.44,2.32-1.2,3.84-1.85,4.15-1.89,8.64-3.9,12.56-6.43,2.59-1.75,5.8-4.15,8.61-5.28,5.09-2.66,9.41-6.37,14.71-8.85,2.25-.94,4.51-.11,6.58-1.51,1.69-.97,3.62-.92,5.45-.45,1.47.35,8.91,1.69,6.13,3.33-.11.09-.26.12-.41.14v-.24h-.45v.24c-.38-.03-.77-.14-1.06-.23-1.03,0-2.6-.54-3.54-.59.15.08,1.85.68,3.25.92,1.98.33,4.33.21,5.31-1.68.95-1.83.11-4.98-1.57-5.07-2.53-.82-5.71-1.65-8.4-1.33-.79-.03-1.11-.48-1.14-1.04h.63v-.76h-.3v.45h-.33c.02-.24.09-.48.19-.71v.11h.15v-.15l.15-.15.76-.61v-.15h.15v.15h.45l.15.15h.3v.15h.3l.15-.15h.15v-.3l.15.15v.15l.15-.15h.45l.15.15h.6l.15.15h.3l.15.15.3.15.15.15.15.15h.15l.15.15h.45v-.15h.15v.15l.15-.15v.15h.45l.15.15h.15l.15.15h.3l.3.15h.15l.15.15.15.15h.15l.3.15h.3l.15-.15h1.06l.15-.3-.36-.09c.11-.06.17-.16.2-.28l.16-.08-.14-.27c-.03-.2-.14-.4-.26-.53l-.05-.11h-.12s-.02,0-.03,0h-.15l-.27.54c-.1,0-.23-.06-.36-.17-.56-.4-.67-1.19-.78-1.96l.05-.07-.09-.17c-.13-.82-.33-1.55-1.17-1.7-.12,0-.18.05-.18.15l-.53.21.15.3.45.61-.45.6h.3l.2.1c0,.06-.02.11-.08.13-.05.02-.09.02-.12,0-.21-.05-.44-.33-.56-.46-.09-.14-.18-.18-.27-.18l.08-.2-.15-.15-.11-.79c.05-.14.09-.28.12-.42l.15-.15-.11-.33c0-.05,0-.1,0-.15l.27-.27h-.28c-.06-.63-.22-1.29-.22-1.98,0-.13.05-.22.11-.26l.24.12.15.15.3.3.44.15s0,.01,0,.02l-.14.29h.17c-.05.15-.14.28-.1.47l-.07.14.15.3-.15.6.3-.15.15.45.46-.15v-.53c.11-.02.17-.13.13-.38-.05-.21-.11-.48-.15-.73v-.03s0,0,0,0c-.01-.1-.02-.18-.02-.26l.04-.04-.04-.04c0-.08.01-.14.03-.17.09-.18.24-.35.3-.63.04-.11.08-.23.12-.35l.03-.02.3-.15-.15-.45h0c.09-.38.15-.82.15-1.35-.03-.32-.08-.57-.08-.77,0-.01,0-.02,0-.04l.08-.12.3-.15.46.15.07-.15s.08.02.1.03c.07-.02.07-.11.05-.2l.53-.13.3.6.15-.3.15-.76-.02-.03c.07-.1.15-.2.22-.29l.1.03.05-.2c.08-.08.15-.13.22-.16l.03.05.15.6-.45.3h1.36l.15-.3v-.76h.45v.3l.3-.15.46.3.3.91.76.3h.15l.6.6-.3.3h.91l.3-.15.15-.15h-.45l-.15-.15c.2.02.31-.08.23-.16h.37l.3-.15.03-.11c.17,0,.33-.04.47-.08l-.2.49.3.15.3-.45.15-.3.15-.15v-.61l-.1-.05c0-.07,0-.13,0-.2l.1-.05-.12-.24c-.09-.85-.14-1.9.15-2.63.01-.03.04-.06.06-.08l.07-.07v-.05c.26-.3.74-.64,1.26-.84l.56.28.61-.15-.1-.26s.09,0,.13.02c.05.04.1.08.14.12l.29.57-.15.76.15.3.3-.15.3.61-.15.45h.3l.15-.45.46-.12c.1.02.21.03.32,0,.04,0,.04-.03.07-.04h.36v-.61l.45-.3.91.76.15-.46-.15-.6h.6l-.14-.41c.4.05.85.12,1.3.21l.35.49.3.3.76.3.3.15v-.48c.23.25.36.58.3,1-.09.17-.13.31-.16.44l-.29.41-.15-.15-.15.45.45.6.6.3.15-.3.45.3.6-.15h.3l.15-.45v-.3h-.01c.11-.07.21-.13.29-.2.21-.12.32.17.56-.02l.07.07-.6.3.15.3.91-.45.3-.3h.45l.3-.3-.15-.15h.15v-.3h-.32s0,0,0,0h.02v-.02c.08-.09.15-.19.19-.34.12-.22.15-.39.31-.5l.56.56.3-.3.61-.3h.91v.3l.46-.15.15.3.45-.3h.45v-.3l.61-.15.6.61.76-.3.45-.3v-.3l.3.15.3.15.76-.6.3.15.3-.15.91-.3.3.15.46-.15h.15l.21-.21s.02,0,.03,0c.06-.01.12-.02.17-.04l.19.1.15.3.15-.15h.3l.15-.15.08-.24c.07,0,.16,0,.24,0l.13.39h.76l.3.15.3.15-.3.3.15.3h.6v-.45l.3-.15.15.3.3-.81c.06.04.11.09.15.16v.65l.3.91-.3.6.3.61.61-.46v-.15l-.15-.15v-.45l.15-.3h-.15v-.15h.15v-.15l.15-.3v-.3h.15v-.15l.15-.15h.3v-.15l.15-.3v-.15h.15v-.3l.15-.15v-.76l.15-.15v-.15l.15-.15v-.15l.15-.15v-.15l.15-.15v-.15l.15-.15.15-.15v-.15l.15-.15v-.15l.15-.15v-.3h-.15v-.15h-.15l-.12-.12.36-.94h.06v-.14h0s.15,0,.15,0l.15-.15h.15l.3-.15.15-.15v-.15l-.15-.15v-.15l-.15-.15.15-.15.15-.15.15-.15v-.15h.15v-.45l.15-.3v-.15h-.15v-.46h.15v-.3h.46v-.15l-.15-.15h.15v-.3h.15v-.76l.04-.04,2.06-.43.02.02v.15l.15-.15h.15v-.09l.3-.06h0s.1-.61.1-.61h.06v-.15l.15-.15v-.15l-.12-.12.03-.19h.09v-.15h-.06l.14-.91h.07l.15-.15v-.3h.15l.15-.15-.15-.15h.15v-.15l-.15-.15v-.3h.15v-.15l.15-.15-.15-.15h-.15v-.46h-.01s.05-.3.05-.3h.11v-.15l.15-.15v-1.06h.15v-.3h-.15,0s.39-.21.39-.21l.06.06.15-.15v-.02l.24-.13h.06l.15.15v-.15h.46v-.15l.15-.15h.15l.15-.15.15-.15v-.07l6.37-3.41h.13v-.07l.15-.08.48-.76h.13l.15-.15v-.15l-.05-.05.06-.1h.14v-.15h-.05l.44-.69.07-.07v-.04l.07-.11h.23v-.37l.15-.23h0s.3-1.52.3-1.52l.32-.15h.59v.15h.15v.15h.15v-.15h.15v.15h.15l.15-.15v-.15h.3v-.15h.6v-.45l.15-.15h.15v-.45h0s0,0,0,0h0v-.15h.15v-.45h-.15l-.15-.15h-.15v-.15h-.15v-.3h-.15v-.15h-.15v-.15l-.15-.15v-.15h.15l-.15-.15-.15-.15v-.15h-.15l.15-.15h-.15l-.3-.15h-.45v-.3h.15v-.15l.15-.15v-.45l-.15-.15v-.45l-.15-.15h0s.1-1.21.1-1.21h.05v-.15h.15v-.15h-.15v-.3h.3l.15-.15.15-.45h.46v-.46l.15-.15h.15v-.3l.15-.15h.11l.33.47-.13.13v.3l.15.15.15.15.15.15h.3s1.21-.36,1.21-.36v.05h.3v-.14h0s.14.14.14.14l.15-.15h.3l.15-.15v-.06l.19-.06.12.12v-.15h0s.04-.15.04-.15h.11v-.42l.02-.06.13-.27v-.24l.13-.49.02-.02v.15h.15v-.45l.15-.15v-.75h0s.06-.07.06-.07l.09-.09h.15v-.15h.15v-.15h.15v-.15l.3-.3v-.04l.97-1.02h.09v-.09l.49-.51h.12v-.12l.32-.33h.14v-.14l.13-.13.03-.02v-.3l-.08-.08-.08-.39v-.3l-.07-.07-.33-1.64.1-.1h-.12l-.03-.15.15-.15h.15v-.76h-.15l.15-.15-.15-.15-.15-.15-.15-.15v-.46h.15v-.6l-.15-.15v-.3h.15v-.76l-.15-.15h-.15v-.15h-.15v-.3l-.15-.15v-.15l-.15-.15v-.15h-.15v-.3l-.15-.15v-.76l.15-.15v-.15h.15v-.3l.15-.15.15-.15v-.15h.15v-.3h.15v-.03l2.57-.27v-.15h0v-1.97h3.63s0,0,0,0v-1.82h3.63s0,0,0,0v-1.82h1.82v-.91l1.82-.91h0l-.15-3.63Z" onclick="&lt;a href=&quot;javascript:void(0);&quot; onclick=&quot;window.open(&apos;https://fdotwww.blob.core.windows.net/sitefinity/docs/default-source/planning/fto/trends---conditions-folder/nw-transportation-trends-and-conditions.pdf&apos;, &apos;_blank&apos;);&quot;&gt;
  Open PDF
&lt;/a&gt;" fill="#1f4283"/></a><path d="M210.62,76.37l8.57,13.15h.05v-13.15h3.15v17.7h-4l-8.75-13.57h-.05v13.57h-3.15v-17.7h4.17Z" fill="#fff"/><path d="M234.69,94.52c-5.45,0-9.3-3.75-9.3-9.22,0-5.1,3.3-9.37,9.47-9.37,5.6,0,9.3,3.75,9.3,9.27s-4.02,9.32-9.47,9.32ZM234.77,91.67c3.82,0,6.1-2.97,6.1-6.57s-2.5-6.32-6.12-6.32-6.05,2.82-6.05,6.32,2.27,6.57,6.07,6.57Z" fill="#fff"/><path d="M253.42,76.37c3.4,0,6.5,1.2,6.5,5.07,0,2.65-1.6,4.45-4.1,4.8l4.7,7.82h-3.8l-4.1-7.5h-2.3v7.5h-3.15v-17.7h6.25ZM252.92,83.87c1.8,0,3.7-.25,3.7-2.45,0-2.02-1.82-2.35-3.47-2.35h-2.82v4.8h2.6Z" fill="#fff"/><path d="M274.67,76.37v2.85h-5.42v14.85h-3.15v-14.85h-5.42v-2.85h14Z" fill="#fff"/><path d="M279.97,76.37v7.05h8.27v-7.05h3.15v17.7h-3.15v-7.8h-8.27v7.8h-3.15v-17.7h3.15Z" fill="#fff"/><path d="M296.82,76.37l3.32,12.75h.05l3.97-12.75h3.1l3.9,12.75h.05l3.47-12.75h3.2l-5.15,17.7h-3l-4.1-13.47h-.05l-4.1,13.47h-2.9l-5.22-17.7h3.45Z" fill="#fff"/><path d="M331.59,76.37v2.85h-8.57v4.35h8.12v2.85h-8.12v4.8h9.02v2.85h-12.17v-17.7h11.72Z" fill="#fff"/><path d="M346.12,77.75l-2.3,2.42c-.7-.98-1.87-1.4-3.1-1.4-1.77,0-2.9.9-2.9,2.27,0,1.2,1,1.85,2.75,2.4,2.82.88,5.65,1.77,5.65,5.42s-2.87,5.65-6.35,5.65c-2.5,0-4.55-.75-5.92-2.4l2.37-2.3c.77,1.17,2.07,1.85,3.5,1.85,1.7,0,3.1-1,3.1-2.42,0-1.32-.9-2.02-3.17-2.72-3.17-.97-5.22-2.05-5.22-5.25s2.67-5.35,6.52-5.35c2.02,0,3.82.65,5.07,1.82Z" fill="#fff"/><path d="M361.69,76.37v2.85h-5.42v14.85h-3.15v-14.85h-5.42v-2.85h14Z" fill="#fff"/><path d="M555.81,154.87l8.57,13.15h.05v-13.15h3.15v17.7h-4l-8.75-13.57h-.05v13.57h-3.15v-17.7h4.17Z" fill="#fff"/><path d="M579.89,173.02c-5.45,0-9.3-3.75-9.3-9.22,0-5.1,3.3-9.37,9.47-9.37,5.6,0,9.3,3.75,9.3,9.27s-4.02,9.32-9.47,9.32ZM579.96,170.17c3.82,0,6.1-2.97,6.1-6.57s-2.5-6.32-6.12-6.32-6.05,2.82-6.05,6.32,2.27,6.57,6.07,6.57Z" fill="#fff"/><path d="M598.61,154.87c3.4,0,6.5,1.2,6.5,5.07,0,2.65-1.6,4.45-4.1,4.8l4.7,7.82h-3.8l-4.1-7.5h-2.3v7.5h-3.15v-17.7h6.25ZM598.11,162.37c1.8,0,3.7-.25,3.7-2.45,0-2.02-1.82-2.35-3.47-2.35h-2.82v4.8h2.6Z" fill="#fff"/><path d="M619.86,154.87v2.85h-5.42v14.85h-3.15v-14.85h-5.42v-2.85h14Z" fill="#fff"/><path d="M625.16,154.87v7.05h8.27v-7.05h3.15v17.7h-3.15v-7.8h-8.27v7.8h-3.15v-17.7h3.15Z" fill="#fff"/><path d="M652.26,154.87v2.85h-8.57v4.35h8.12v2.85h-8.12v4.8h9.02v2.85h-12.17v-17.7h11.72Z" fill="#fff"/><path d="M664.26,154.87l7.62,17.7h-3.6l-1.65-4.05h-7.67l-1.6,4.05h-3.52l7.7-17.7h2.72ZM660.04,165.82h5.5l-2.72-7.2-2.77,7.2Z" fill="#fff"/><path d="M684.84,156.25l-2.3,2.42c-.7-.98-1.87-1.4-3.1-1.4-1.77,0-2.9.9-2.9,2.27,0,1.2,1,1.85,2.75,2.4,2.82.88,5.65,1.77,5.65,5.42s-2.87,5.65-6.35,5.65c-2.5,0-4.55-.75-5.92-2.4l2.37-2.3c.77,1.17,2.07,1.85,3.5,1.85,1.7,0,3.1-1,3.1-2.42,0-1.32-.9-2.02-3.17-2.72-3.17-.97-5.22-2.05-5.22-5.25s2.67-5.35,6.52-5.35c2.02,0,3.82.65,5.07,1.82Z" fill="#fff"/><path d="M700.41,154.87v2.85h-5.42v14.85h-3.15v-14.85h-5.42v-2.85h14Z" fill="#fff"/><path d="M711.57,399.89l-2.45,1.8c-1.02-1.1-2.17-1.75-3.72-1.75-3.62,0-6.07,2.8-6.07,6.32s2.35,6.57,6.07,6.57c1.67,0,2.97-.88,3.97-2.15l2.6,1.85c-1.52,2.15-4,3.15-6.6,3.15-5.45,0-9.35-3.72-9.35-9.22s3.7-9.37,9.35-9.37c2.52,0,4.52.9,6.2,2.8Z" fill="#fff"/><path d="M725.82,397.54v2.85h-8.57v4.35h8.12v2.85h-8.12v4.8h9.02v2.85h-12.17v-17.7h11.72Z" fill="#fff"/><path d="M733.55,397.54l8.57,13.15h.05v-13.15h3.15v17.7h-4l-8.75-13.57h-.05v13.57h-3.15v-17.7h4.17Z" fill="#fff"/><path d="M761.47,397.54v2.85h-5.42v14.85h-3.15v-14.85h-5.42v-2.85h14Z" fill="#fff"/><path d="M769.87,397.54c3.4,0,6.5,1.2,6.5,5.07,0,2.65-1.6,4.45-4.1,4.8l4.7,7.82h-3.8l-4.1-7.5h-2.3v7.5h-3.15v-17.7h6.25ZM769.37,405.04c1.8,0,3.7-.25,3.7-2.45,0-2.02-1.82-2.35-3.47-2.35h-2.82v4.8h2.6Z" fill="#fff"/><path d="M787.82,397.54l7.62,17.7h-3.6l-1.65-4.05h-7.67l-1.6,4.05h-3.52l7.7-17.7h2.72ZM783.6,408.48h5.5l-2.72-7.2-2.77,7.2Z" fill="#fff"/><path d="M800.57,397.54v14.85h7.52v2.85h-10.67v-17.7h3.15Z" fill="#fff"/><path d="M702.61,601.58l-2.3,2.42c-.7-.98-1.87-1.4-3.1-1.4-1.77,0-2.9.9-2.9,2.27,0,1.2,1,1.85,2.75,2.4,2.82.88,5.65,1.77,5.65,5.42s-2.87,5.65-6.35,5.65c-2.5,0-4.55-.75-5.92-2.4l2.37-2.3c.77,1.17,2.07,1.85,3.5,1.85,1.7,0,3.1-1,3.1-2.42,0-1.32-.9-2.02-3.17-2.72-3.17-.97-5.22-2.05-5.22-5.25s2.67-5.35,6.52-5.35c2.02,0,3.82.65,5.07,1.82Z" fill="#fff"/><path d="M714.34,618.35c-5.45,0-9.3-3.75-9.3-9.22,0-5.1,3.3-9.37,9.47-9.37,5.6,0,9.3,3.75,9.3,9.27s-4.02,9.32-9.47,9.32ZM714.41,615.5c3.82,0,6.1-2.97,6.1-6.57s-2.5-6.32-6.12-6.32-6.05,2.82-6.05,6.32,2.27,6.57,6.07,6.57Z" fill="#fff"/><path d="M729.89,600.2v11.17c0,1.62.92,3.97,3.97,3.97s3.97-2.35,3.97-3.97v-11.17h3.15v11.32c0,3.47-2.45,6.82-7.12,6.82s-7.12-3.37-7.12-6.82v-11.32h3.15Z" fill="#fff"/><path d="M757.06,600.2v2.85h-5.42v14.85h-3.15v-14.85h-5.42v-2.85h14Z" fill="#fff"/><path d="M762.36,600.2v7.05h8.27v-7.05h3.15v17.7h-3.15v-7.8h-8.27v7.8h-3.15v-17.7h3.15Z" fill="#fff"/><path d="M779.21,600.2l3.32,12.75h.05l3.97-12.75h3.1l3.9,12.75h.05l3.47-12.75h3.2l-5.15,17.7h-3l-4.1-13.47h-.05l-4.1,13.47h-2.9l-5.22-17.7h3.45Z" fill="#fff"/><path d="M813.99,600.2v2.85h-8.57v4.35h8.12v2.85h-8.12v4.8h9.02v2.85h-12.17v-17.7h11.72Z" fill="#fff"/><path d="M828.51,601.58l-2.3,2.42c-.7-.98-1.87-1.4-3.1-1.4-1.77,0-2.9.9-2.9,2.27,0,1.2,1,1.85,2.75,2.4,2.82.88,5.65,1.77,5.65,5.42s-2.87,5.65-6.35,5.65c-2.5,0-4.55-.75-5.92-2.4l2.37-2.3c.77,1.17,2.07,1.85,3.5,1.85,1.7,0,3.1-1,3.1-2.42,0-1.32-.9-2.02-3.17-2.72-3.17-.97-5.22-2.05-5.22-5.25s2.67-5.35,6.52-5.35c2.02,0,3.82.65,5.07,1.82Z" fill="#fff"/><path d="M844.09,600.2v2.85h-5.42v14.85h-3.15v-14.85h-5.42v-2.85h14Z" fill="#fff"/><path d="M679.95,874.91l-2.3,2.42c-.7-.98-1.87-1.4-3.1-1.4-1.77,0-2.9.9-2.9,2.27,0,1.2,1,1.85,2.75,2.4,2.82.88,5.65,1.77,5.65,5.42s-2.87,5.65-6.35,5.65c-2.5,0-4.55-.75-5.92-2.4l2.37-2.3c.77,1.17,2.07,1.85,3.5,1.85,1.7,0,3.1-1,3.1-2.42,0-1.32-.9-2.02-3.17-2.72-3.17-.97-5.22-2.05-5.22-5.25s2.67-5.35,6.52-5.35c2.02,0,3.82.65,5.07,1.82Z" fill="#1f4283"/><path d="M691.67,891.68c-5.45,0-9.3-3.75-9.3-9.22,0-5.1,3.3-9.37,9.47-9.37,5.6,0,9.3,3.75,9.3,9.27s-4.02,9.32-9.47,9.32ZM691.75,888.83c3.82,0,6.1-2.97,6.1-6.57s-2.5-6.32-6.12-6.32-6.05,2.82-6.05,6.32,2.27,6.57,6.07,6.57Z" fill="#1f4283"/><path d="M707.22,873.54v11.17c0,1.62.92,3.97,3.97,3.97s3.97-2.35,3.97-3.97v-11.17h3.15v11.32c0,3.47-2.45,6.82-7.12,6.82s-7.12-3.37-7.12-6.82v-11.32h3.15Z" fill="#1f4283"/><path d="M734.4,873.54v2.85h-5.42v14.85h-3.15v-14.85h-5.42v-2.85h14Z" fill="#1f4283"/><path d="M739.7,873.54v7.05h8.27v-7.05h3.15v17.7h-3.15v-7.8h-8.27v7.8h-3.15v-17.7h3.15Z" fill="#1f4283"/><path d="M766.8,873.54v2.85h-8.57v4.35h8.12v2.85h-8.12v4.8h9.02v2.85h-12.17v-17.7h11.72Z" fill="#1f4283"/><path d="M778.8,873.54l7.62,17.7h-3.6l-1.65-4.05h-7.67l-1.6,4.05h-3.52l7.7-17.7h2.72ZM774.57,884.48h5.5l-2.72-7.2-2.77,7.2Z" fill="#1f4283"/><path d="M799.37,874.91l-2.3,2.42c-.7-.98-1.87-1.4-3.1-1.4-1.77,0-2.9.9-2.9,2.27,0,1.2,1,1.85,2.75,2.4,2.82.88,5.65,1.77,5.65,5.42s-2.87,5.65-6.35,5.65c-2.5,0-4.55-.75-5.92-2.4l2.37-2.3c.77,1.17,2.07,1.85,3.5,1.85,1.7,0,3.1-1,3.1-2.42,0-1.32-.9-2.02-3.17-2.72-3.17-.97-5.22-2.05-5.22-5.25s2.67-5.35,6.52-5.35c2.02,0,3.82.65,5.07,1.82Z" fill="#1f4283"/><path d="M814.94,873.54v2.85h-5.42v14.85h-3.15v-14.85h-5.42v-2.85h14Z" fill="#1f4283"/></svg>